<?xml version="1.0" encoding="UTF-8"?>
<svg xmlns="http://www.w3.org/2000/svg" version="1.1" viewBox="0 0 200 200">
  <defs>
    <style>
      .cls-1 {
        fill: none;
        stroke: #920337;
        stroke-miterlimit: 10;
        stroke-width: 5px;
      }

      .cls-2 {
        fill: #920337;
      }
    </style>
  </defs>
  <!-- Generator: Adobe Illustrator 28.6.0, SVG Export Plug-In . SVG Version: 1.2.0 Build 709)  -->
  <g>
    <g id="Layer_1">
      <g>
        <path class="cls-1" d="M53.76,42.78h88.48c8.26,0,14.97,6.71,14.97,14.97v88.48c0,6.06-4.92,10.97-10.97,10.97H53.76c-6.06,0-10.97-4.92-10.97-10.97V53.76c0-6.06,4.92-10.97,10.97-10.97Z"/>
        <path class="cls-1" d="M138.05,145.08H61.95c-3.88,0-7.03-3.15-7.03-7.03V61.95c0-3.88,3.15-7.03,7.03-7.03h76.1c3.88,0,7.03,3.15,7.03,11.03v76.1c0-.12-3.15,3.03-7.03,3.03Z"/>
        <g>
          <rect class="cls-2" x="26.31" y="70.52" width="15.6" height="6.94"/>
          <rect class="cls-2" x="26.31" y="96.53" width="15.6" height="6.94"/>
          <rect class="cls-2" x="26.31" y="122.54" width="15.6" height="6.94"/>
          <rect class="cls-2" x="158.08" y="70.52" width="15.6" height="6.94"/>
          <rect class="cls-2" x="158.08" y="96.53" width="15.6" height="6.94"/>
          <rect class="cls-2" x="158.08" y="122.54" width="15.6" height="6.94"/>
        </g>
        <g>
          <rect class="cls-2" x="66.19" y="162.42" width="15.6" height="6.94" transform="translate(-91.89 239.88) rotate(-90)"/>
          <rect class="cls-2" x="92.2" y="162.42" width="15.6" height="6.94" transform="translate(-65.89 265.89) rotate(-90)"/>
          <rect class="cls-2" x="118.21" y="162.42" width="15.6" height="6.94" transform="translate(-39.88 291.89) rotate(-90)"/>
          <rect class="cls-2" x="66.19" y="30.65" width="15.6" height="6.94" transform="translate(39.88 108.11) rotate(-90)"/>
          <rect class="cls-2" x="92.2" y="30.65" width="15.6" height="6.94" transform="translate(65.89 134.11) rotate(-90)"/>
          <rect class="cls-2" x="118.21" y="30.65" width="15.6" height="6.94" transform="translate(91.89 160.12) rotate(-90)"/>
        </g>
        <g>
          <path class="cls-2" d="M86.12,131.24c-.37,0-.69-.23-.82-.58-.03-.08-2.95-8.16-5.86-11.07s-10.99-5.83-11.07-5.86c-.35-.12-.58-.45-.57-.82s.24-.69.58-.81c.08-.03,8.1-2.8,11.01-5.71,2.91-2.91,5.88-11.13,5.91-11.22.12-.33.43-.56.78-.57.01,0,.02,0,.03,0,.34,0,.65.2.79.51.04.08,3.77,8.34,6.71,11.28,2.92,2.92,10.19,5.69,10.27,5.72.34.13.56.46.56.82,0,.36-.23.69-.58.81-.08.03-8.16,2.95-11.07,5.86s-5.83,10.99-5.86,11.07c-.12.34-.45.58-.82.58Z"/>
          <path class="cls-2" d="M86.12,95.46s3.8,8.45,6.88,11.54,10.57,5.92,10.57,5.92c0,0-8.31,2.98-11.39,6.06-3.09,3.09-6.06,11.39-6.06,11.39,0,0-2.98-8.31-6.06-11.39s-11.39-6.06-11.39-6.06c0,0,8.25-2.83,11.34-5.92s6.12-11.54,6.12-11.54M86.12,93.73s-.05,0-.07,0c-.71.03-1.33.48-1.56,1.15-.81,2.25-3.41,8.59-5.71,10.9-2.29,2.29-8.48,4.75-10.68,5.51-.7.24-1.17.89-1.17,1.63,0,.74.46,1.4,1.15,1.64,2.21.79,8.45,3.35,10.75,5.65s4.86,8.54,5.65,10.75c.25.69.9,1.15,1.63,1.15s1.39-.46,1.63-1.15c.79-2.21,3.35-8.45,5.65-10.75s8.54-4.86,10.75-5.65c.68-.25,1.14-.89,1.15-1.62,0-.73-.44-1.38-1.12-1.64-1.99-.75-7.65-3.21-9.96-5.52-2.34-2.34-5.51-8.75-6.53-11.02-.28-.62-.9-1.02-1.58-1.02h0Z"/>
        </g>
        <g>
          <path class="cls-2" d="M121.27,108.33c-.37,0-.69-.23-.82-.58-.02-.05-1.91-5.29-3.77-7.16-1.86-1.86-7.1-3.76-7.16-3.77-.33-.12-.56-.43-.57-.78-.02-.35.18-.68.5-.83.05-.02,4.94-2.31,6.83-4.2,1.89-1.89,4.18-6.78,4.2-6.83.14-.31.45-.5.79-.5s.64.2.79.5c.02.05,2.31,4.94,4.2,6.83,1.89,1.89,6.78,4.18,6.83,4.2.32.15.52.47.5.83-.02.35-.24.66-.57.78-.05.02-5.29,1.91-7.16,3.77-1.86,1.86-3.76,7.1-3.77,7.16-.12.34-.45.58-.82.58Z"/>
          <path class="cls-2" d="M121.27,84.55s2.35,5.05,4.38,7.08c2.03,2.03,7.08,4.38,7.08,4.38,0,0-5.45,1.95-7.48,3.98s-3.98,7.48-3.98,7.48c0,0-1.95-5.45-3.98-7.48s-7.48-3.98-7.48-3.98c0,0,5.05-2.35,7.08-4.38,2.03-2.03,4.38-7.08,4.38-7.08M121.27,82.82c-.67,0-1.29.39-1.57,1-.62,1.33-2.55,5.11-4.03,6.59-1.48,1.48-5.26,3.41-6.59,4.03-.64.3-1.03.95-1,1.65.03.7.48,1.32,1.15,1.55,1.42.51,5.41,2.14,6.84,3.57,1.43,1.43,3.06,5.42,3.57,6.84.25.69.9,1.15,1.63,1.15s1.39-.46,1.63-1.15c.51-1.42,2.14-5.41,3.57-6.84,1.27-1.27,4.87-2.87,6.84-3.57.66-.24,1.12-.85,1.15-1.55.03-.7-.36-1.35-1-1.65-1.33-.62-5.11-2.55-6.59-4.03s-3.41-5.26-4.03-6.59c-.28-.61-.9-1-1.57-1h0Z"/>
        </g>
        <g>
          <path class="cls-2" d="M97.03,84.09c-.37,0-.69-.23-.82-.57-.3-.83-1.26-3.18-2.11-4.03s-3.2-1.81-4.03-2.11c-.33-.12-.56-.43-.57-.78s.18-.68.5-.83c.78-.36,3-1.5,3.87-2.37.88-.88,2.01-3.09,2.37-3.87.14-.31.45-.5.79-.5h0c.34,0,.64.2.79.5.36.78,1.5,3,2.37,3.87.88.88,3.09,2.01,3.87,2.37.32.15.52.47.5.83-.02.35-.24.66-.57.78-.83.3-3.18,1.26-4.03,2.11-.85.85-1.81,3.2-2.11,4.03-.12.34-.45.57-.82.57h0Z"/>
          <path class="cls-2" d="M97.03,69.89s1.37,2.94,2.55,4.12,4.12,2.55,4.12,2.55c0,0-3.17,1.14-4.35,2.32s-2.32,4.35-2.32,4.35c0,0-1.14-3.17-2.31-4.35s-4.35-2.32-4.35-2.32c0,0,2.94-1.37,4.12-2.55s2.55-4.12,2.55-4.12M97.03,68.15c-.67,0-1.29.39-1.57,1-.48,1.03-1.5,2.93-2.2,3.63-.7.7-2.59,1.72-3.63,2.2-.64.3-1.03.95-1,1.65.03.7.48,1.32,1.15,1.55,1.17.42,3.09,1.29,3.71,1.91.62.62,1.5,2.58,1.91,3.71.25.69.9,1.15,1.63,1.15h0c.73,0,1.38-.46,1.63-1.15.42-1.17,1.29-3.09,1.91-3.71.62-.62,2.54-1.49,3.71-1.91.66-.24,1.11-.85,1.15-1.55.03-.7-.36-1.35-1-1.65-1.03-.48-2.93-1.5-3.63-2.2-.7-.7-1.72-2.59-2.2-3.63-.28-.61-.9-1-1.57-1h0Z"/>
        </g>
      </g>
    </g>
  </g>
</svg>