<?xml version="1.0" encoding="UTF-8"?>
<svg xmlns="http://www.w3.org/2000/svg" version="1.1" viewBox="0 0 200 200">
  <defs>
    <style>
      .cls-1 {
        fill: #920337;
      }
    </style>
  </defs>
  <!-- Generator: Adobe Illustrator 28.6.0, SVG Export Plug-In . SVG Version: 1.2.0 Build 709)  -->
  <g>
    <g id="Layer_1">
      <path class="cls-1" d="M161.09,42.83l-125.14,49.35c-3.44,1.36-3.38,6.25.1,7.52l30.67,11.19c1.18.43,2.09,1.39,2.46,2.59l10.49,33.9c.88,2.85,4.45,3.78,6.61,1.72l13.97-13.3c1.36-1.3,3.45-1.48,5.01-.43l31.91,21.4c2.36,1.58,5.57.29,6.17-2.49l23.15-106.86c.68-3.14-2.42-5.77-5.41-4.59ZM87.56,115.64c-1.28,1.25-2.12,2.88-2.4,4.65l-2.57,16.28-8.17-26.34c-.49-1.57.13-3.28,1.52-4.18l62.66-40.49-51.03,50.07Z"/>
    </g>
  </g>
</svg>